<?xml version="1.0" encoding="utf-8"?>
<!-- Generator: Adobe Illustrator 19.0.0, SVG Export Plug-In . SVG Version: 6.00 Build 0)  -->
<svg version="1.0" id="Layer_1" xmlns="http://www.w3.org/2000/svg" xmlns:xlink="http://www.w3.org/1999/xlink" x="0px" y="0px"
	 viewBox="0 0 200 100" style="enable-background:new 0 0 200 100;" xml:space="preserve">
<style type="text/css">
	.st0{fill:#FEDA03;}
	.st1{fill:#FCB01B;}
	.st2{fill:#FFCB0B;}
	.st3{fill:#F15C25;}
	.st4{fill:#F47A20;}
	.st5{fill:#F89520;}
	.st6{fill:#6DA642;}
	.st7{fill:#669B41;}
	.st8{fill:#75C044;}
	.st9{fill:#1E94D2;}
	.st10{fill:#1378BA;}
	.st11{fill:#2BACE2;}
	.st12{fill:#C42126;}
	.st13{fill:#EC2227;}
	.st14{fill:#D72027;}
	.st15{fill:#812B90;}
	.st16{fill:#4E276D;}
	.st17{fill:#662C84;}
</style>
<polygon id="XMLID_18_" class="st0" points="147.7,37.9 153.6,27.3 161,38 153.8,48.1 "/>
<polygon id="XMLID_17_" class="st1" points="160,38.2 172.4,38.2 166,48.1 153.8,48.1 "/>
<polygon id="XMLID_16_" class="st2" points="153.6,27.3 166.2,27.3 172.4,38.2 160,38.2 "/>
<polygon id="XMLID_15_" class="st3" points="101.1,51.1 116.3,23.5 135.4,51.2 116.9,77.5 "/>
<polygon id="XMLID_14_" class="st4" points="133,51.8 164.9,51.8 148.5,77.5 116.9,77.5 "/>
<polygon id="XMLID_13_" class="st5" points="116.3,23.5 148.9,23.5 164.9,51.8 133,51.8 "/>
<polygon id="XMLID_12_" class="st6" points="74.2,32.1 88.5,6.3 106.5,32.3 89.1,57 "/>
<polygon id="XMLID_11_" class="st7" points="104.2,32.9 134.2,32.9 118.8,57 89.1,57 "/>
<polygon id="XMLID_10_" class="st8" points="88.5,6.3 119.2,6.3 134.2,32.9 104.2,32.9 "/>
<polygon id="XMLID_9_" class="st9" points="40.4,39.6 46.3,28.9 53.7,39.7 46.5,49.8 "/>
<polygon id="XMLID_8_" class="st10" points="52.7,39.9 65.1,39.9 58.7,49.8 46.5,49.8 "/>
<polygon id="XMLID_7_" class="st11" points="46.3,28.9 58.9,28.9 65.1,39.9 52.7,39.9 "/>
<polygon id="XMLID_6_" class="st12" points="47.7,61.1 67,26.2 91.3,61.4 67.7,94.7 "/>
<polygon id="XMLID_5_" class="st13" points="88.2,62.1 128.7,62.1 107.8,94.7 67.7,94.7 "/>
<polygon id="XMLID_4_" class="st14" points="67,26.2 96,26.2 102,36.3 114.1,36.3 128.7,62.1 88.2,62.1 "/>
<polygon id="XMLID_3_" class="st15" points="35.6,60.5 41.5,49.8 48.9,60.5 41.7,70.7 "/>
<polygon id="XMLID_2_" class="st16" points="47.9,60.7 60.3,60.7 53.9,70.7 41.7,70.7 "/>
<polygon id="XMLID_1_" class="st17" points="41.5,49.8 54.1,49.8 60.3,60.7 47.9,60.7 "/>
</svg>
